<svg xmlns="http://www.w3.org/2000/svg" width="304.567" height="243.528" viewBox="0 0 304.567 243.528"><g transform="translate(-26.17 -278.019)"><path d="M924.777,1332.69h66.577c5.35,0,9.7-4.7,9.7-10.5V1288.9H915.1v33.294C915.1,1327.985,919.427,1332.69,924.777,1332.69Z" transform="translate(-819.493 -811.226)" fill="#4d4d4d"/><path d="M915.861,1332.69c5.35,0,9.7-4.7,9.7-10.5V1288.9H885.1v33.294c0,5.791,4.347,10.5,9.7,10.5Z" transform="translate(-795.393 -811.226)" fill="#666"/><rect width="72.94" height="6.423" transform="translate(251.796 311.537)" fill="#d09e88"/><rect width="70.94" height="203.707" transform="translate(251.796 317.537)" fill="#c38c73"/><rect width="55.356" height="4.875" transform="translate(130.145 472.82)" fill="#666"/><rect width="56.626" height="6.423" transform="translate(195.17 311.537)" fill="#e9c8ba"/><rect width="54.626" height="203.707" transform="translate(197.17 317.537)" fill="#d09e88"/><rect width="42.975" height="4.875" transform="translate(87.17 472.82)" fill="#989898"/><g transform="translate(100.293 278.019)"><path d="M1257.34,560.687l-26.757-13.881a10.114,10.114,0,1,1,9.26-17.984L1266.6,542.7a10.114,10.114,0,1,1-9.26,17.984Z" transform="translate(-1217.522 -449.359)" fill="#f0c0c0"/><path d="M910.257,77.943a14.662,14.662,0,0,0,20.66,0l11.66-11.66a29.543,29.543,0,0,1-36.292,36.292l-57.341,57.341a14.662,14.662,0,0,1-20.66,0h0a14.662,14.662,0,0,1,0-20.66l57.341-57.341a29.543,29.543,0,0,1,36.292-36.292l-11.66,11.66a14.662,14.662,0,0,0,0,20.66Z" transform="translate(-824.026 -44.583)" fill="#6266e9"/><path d="M1109.741,384.857h0a7.38,7.38,0,0,1,0-10.395l44.222-44.222a7.38,7.38,0,0,1,10.395,0h0a7.381,7.381,0,0,1,0,10.395l-44.222,44.222A7.38,7.38,0,0,1,1109.741,384.857Z" transform="translate(-1092.884 -282.124)" fill="#3b40e4"/><path d="M25.336,0H0V130.038H25.336Z" transform="translate(42.463 113.225)" fill="#6266e9"/><path d="M1251.367,959.514a3.382,3.382,0,0,1-3.487-3.308l-.486-19.7a3.445,3.445,0,0,1,3.325-3.519l5.984-.195a3.382,3.382,0,0,1,3.487,3.308l.486,19.7a3.444,3.444,0,0,1-3.324,3.519Z" transform="translate(-1209.731 -788.753)" fill="#3b40e4"/><path d="M14.882.073A10.129,10.129,0,0,1,23.7,11.36L20.184,39.674A10.129,10.129,0,1,1,.076,37.209L3.611,8.895A10.125,10.125,0,0,1,14.882.073Z" transform="translate(53.092 112.963) rotate(-171)" fill="#fff"/><path d="M901.3,742.8h25.353l22.928,130.038H924.245Z" transform="translate(-838.545 -629.575)" fill="#6266e9"/><path d="M998.946,564.055a26.618,26.618,0,0,1-26.546-26.53V512.746a26.546,26.546,0,1,1,53.092,0v24.762A26.632,26.632,0,0,1,998.946,564.055Z" transform="translate(-929.954 -414.586)" fill="#3b40e4"/><path d="M950.7,678.595a22.995,22.995,0,1,1,22.995,22.995A23.039,23.039,0,0,1,950.7,678.595Z" transform="translate(-897.632 -556.515)" fill="#3b40e4"/><path d="M1000.454,476.839A26.33,26.33,0,0,1,974.2,450.584v-25.33a26.254,26.254,0,0,1,52.509,0V450.6A26.338,26.338,0,0,1,1000.454,476.839Z" transform="translate(-931.462 -341.527)" fill="#fff"/><path d="M1214.3,436.3V408a5.3,5.3,0,1,1,10.605,0v28.314a5.3,5.3,0,1,1-10.605-.016Z" transform="translate(-1168.594 -344.626)" fill="#3b40e4"/><path d="M1081.608,242.073a14.15,14.15,0,0,1-14.108-14.108V206.008a14.15,14.15,0,0,1,14.108-14.108h0a14.15,14.15,0,0,1,14.108,14.108v21.957a14.15,14.15,0,0,1-14.108,14.108Z" transform="translate(-1015.599 -168.011)" fill="#c38c73"/><path d="M1067.5,147.335V134.784a20.384,20.384,0,0,1,40.768,0v12.551a20.384,20.384,0,0,1-40.768,0Z" transform="translate(-1028.151 -103.078)" fill="#d09e88"/><path d="M999.046,614A26.621,26.621,0,0,1,972.5,587.457V572.165A12.7,12.7,0,0,1,985.165,559.5h27.746a12.7,12.7,0,0,1,12.665,12.665v15.292A26.618,26.618,0,0,1,999.046,614Z" transform="translate(-930.053 -475.999)" fill="#6266e9"/><path d="M1121.954,663.592a8.277,8.277,0,0,1-8.254-8.254v-5.481a2.765,2.765,0,0,1,2.757-2.757h14.563a2.765,2.765,0,0,1,2.757,2.757v5.481a8.277,8.277,0,0,1-8.254,8.254Z" transform="translate(-1061.151 -549.394)" fill="#3b40e4"/><path d="M1213.227,552.735a2.637,2.637,0,0,1-2.627-2.627v-2.481a2.637,2.637,0,0,1,2.627-2.627h6.519a2.637,2.637,0,0,1,2.627,2.627v2.481a2.637,2.637,0,0,1-2.627,2.627Z" transform="translate(-1165.462 -463.851)" fill="#ccc"/><path d="M938.857,970.509a3.54,3.54,0,0,1-3.989-2.773L930.976,948.1a3.248,3.248,0,0,1,2.676-3.859l5.854-.957a3.54,3.54,0,0,1,3.989,2.773l3.892,19.638a3.256,3.256,0,0,1-2.676,3.859Z" transform="translate(-845.183 -797.51)" fill="#3b40e4"/><path d="M1091.6,209.9V199.2h11.627v16.508h-5.822A5.81,5.81,0,0,1,1091.6,209.9Z" transform="translate(-1027.019 -174.127)" fill="#384452"/><path d="M1067.616,108.627A13.465,13.465,0,0,1,1081.043,95.2h13.9a13.465,13.465,0,0,1,13.427,13.427v13.427H1067.6l.016-13.427Z" transform="translate(-1028.267 -86.992)" fill="#384452"/><path d="M1125.616,108.627A13.465,13.465,0,0,1,1139.043,95.2h4.492a13.465,13.465,0,0,1,13.427,13.427v13.427H1125.6l.016-13.427Z" transform="translate(-1086.267 -86.992)" fill="#3f5165"/><path d="M1111.065,235.414a2.474,2.474,0,0,1-2.465-2.465h0a2.46,2.46,0,0,1,2.465-2.449h38.595a2.471,2.471,0,0,1,2.465,2.449h0a2.474,2.474,0,0,1-2.465,2.465Z" transform="translate(-1078.673 -200.351)" fill="#647991"/><path d="M1195.6,166.727a1.115,1.115,0,0,1-1.1-1.1V160.4a1.114,1.114,0,0,1,1.1-1.1h13.93a1.115,1.115,0,0,1,1.1,1.1v5.222a1.115,1.115,0,0,1-1.1,1.1Z" transform="translate(-1151.113 -140.697)" fill="#3b40e4"/><path d="M1038.3,254.484a5.984,5.984,0,1,1,5.984,5.984A6,6,0,0,1,1038.3,254.484Z" transform="translate(-965.416 -215.432)" fill="#c38c73"/><path d="M1205.773,358.776h-6.535a2.243,2.243,0,0,1-2.238-2.238V354.3h8.773a3.075,3.075,0,0,0-.973,2.238h0A3.048,3.048,0,0,0,1205.773,358.776Z" transform="translate(-1146.656 -304.075)" fill="#fff"/><path d="M866.862,461.051l-17.108-26.919a10.129,10.129,0,0,1,17.108-10.849L883.97,450.2a10.129,10.129,0,0,1-17.108,10.849Z" transform="translate(-769.864 -357.929)" fill="#fff"/><path d="M1035.3,436.3V408a5.3,5.3,0,0,1,10.606,0v28.314a5.3,5.3,0,1,1-10.606-.016Z" transform="translate(-960.567 -344.626)" fill="#3b40e4"/><path d="M1034.227,552.735a2.637,2.637,0,0,1-2.627-2.627v-2.481a2.637,2.637,0,0,1,2.627-2.627h6.519a2.637,2.637,0,0,1,2.627,2.627v2.481a2.637,2.637,0,0,1-2.627,2.627Z" transform="translate(-957.435 -463.851)" fill="#ccc"/><path d="M1387.1,511.414a12.714,12.714,0,1,1,12.714,12.714A12.734,12.734,0,0,1,1387.1,511.414Z" transform="translate(-1384.238 -425.059)" fill="#d09e88"/><path d="M1031.824,784.1a2.132,2.132,0,0,1-2.124-2.124v-4.054a2.132,2.132,0,0,1,2.124-2.124h40.541a2.132,2.132,0,0,1,2.124,2.124v4.054a2.132,2.132,0,0,1-2.124,2.124Z" transform="translate(-988.243 -657.223)" fill="#3b40e4"/><path d="M928.338,784.776A10.066,10.066,0,0,1,918.3,774.738v-5.805a4.246,4.246,0,0,1,4.232-4.232h23.5a4.246,4.246,0,0,1,4.232,4.232V776a8.8,8.8,0,0,1-8.773,8.773Z" transform="translate(-845.951 -647.923)" fill="#3b40e4"/><path d="M1138.043,782.957a2.644,2.644,0,0,1-2.643-2.643v-3.47a2.644,2.644,0,0,1,2.643-2.643h8.449a2.644,2.644,0,0,1,2.643,2.643v3.47a2.644,2.644,0,0,1-2.643,2.643Z" transform="translate(-1080.029 -655.883)" fill="#3e4b59"/><path d="M1436.8,671.841a5.741,5.741,0,1,1,5.741,5.741A5.751,5.751,0,0,1,1436.8,671.841Z" transform="translate(-1428.052 -565.313)" fill="#5d728a"/><path d="M851.873,617.963a10.109,10.109,0,0,1-.957-14.254l13.557-15.535a10.1,10.1,0,1,1,15.211,13.3l-13.557,15.535A10.1,10.1,0,0,1,851.873,617.963Z" transform="translate(-766.535 -497.132)" fill="#c38c73"/><path d="M936.3,680.714a12.714,12.714,0,1,1,12.714,12.714A12.734,12.734,0,0,1,936.3,680.714Z" transform="translate(-860.334 -566.904)" fill="#d09e88"/></g><path d="M927.851,1346.6h87.725c7.05,0,12.777-6.2,12.777-13.83V1288.9H915.1v43.87C915.1,1340.4,920.8,1346.6,927.851,1346.6Z" transform="translate(-702.812 -825.684)" fill="#4d4d4d"/><path d="M925.633,1346.6c7.049,0,12.777-6.2,12.777-13.83V1288.9H885.1v43.87c0,7.63,5.728,13.83,12.776,13.83Z" transform="translate(-680.587 -825.684)" fill="#666"/><rect width="72.94" height="6.423" transform="translate(257.796 456.82)" fill="#666"/><rect width="56.626" height="6.423" transform="translate(201.17 456.82)" fill="#989898"/><rect width="52.745" height="4.645" transform="translate(67.118 428.537)" fill="#d09e88"/><rect width="51.299" height="88.672" transform="translate(67.118 432.876)" fill="#c38c73"/><rect width="40.948" height="4.645" transform="translate(26.17 428.537)" fill="#e9c8ba"/><rect width="39.502" height="88.672" transform="translate(27.616 432.876)" fill="#d09e88"/></g></svg>