<svg xmlns="http://www.w3.org/2000/svg" width="171.991" height="171.991" viewBox="0 0 171.991 171.991"><path d="M0,171.991V0H171.991V171.991Z" fill="none"/><path d="M105.539,64.125l-57.445,33.4L78.82,156.3l60.117-34.734h26.719l-33.4-57.445Z" fill="#fff"/><path d="M60.251,76.816a4.026,4.026,0,0,1-3.473-2L42.616,50.365l-7.748.4a3.936,3.936,0,0,1-4.141-3.874A3.861,3.861,0,0,1,34.6,42.75l10.153-.4a3.937,3.937,0,0,1,3.607,2L63.724,70.938a4.09,4.09,0,0,1-1.47,5.477,5.361,5.361,0,0,1-2,.4Z" fill="#34495e"/><circle cx="24.047" cy="24.047" r="24.047" transform="translate(31.939 165.531) rotate(-89.703)" fill="#fff"/><path d="M56.109,169.664h-.134a28.055,28.055,0,0,1,.134-56.109h.134a28.051,28.051,0,0,1,27.921,28.188h0a28.109,28.109,0,0,1-28.055,27.921Zm0-48.094a20.039,20.039,0,0,0-.134,40.078h.134a20.039,20.039,0,1,0,0-40.078h0Zm24.047,20.173Z" fill="#34495e"/><path d="M169.263,120.769c-.134-.267-.267-.668-.4-.935h0l-33.4-57.846a3.987,3.987,0,0,0-3.473-2h0l-26.452.134h-.134a3.77,3.77,0,0,0-2,.534L49.029,91.779,21.642,44.353a3.827,3.827,0,0,0-3.607-2l-12.825.4a3.936,3.936,0,0,0-3.874,4.141,4.015,4.015,0,0,0,4.141,3.874l10.42-.4L47.425,105a4.026,4.026,0,0,0,3.473,2,3.77,3.77,0,0,0,2-.534A4.09,4.09,0,0,0,54.372,101l-1.336-2.271L75.079,86.168l4.676,8.016a4.026,4.026,0,0,0,3.473,2,3.77,3.77,0,0,0,2-.534,4.09,4.09,0,0,0,1.47-5.477L82.026,82.16,103.936,69.6l29.391,50.766h0L90.443,145.083a3.953,3.953,0,0,0-1.87,4.542,4.008,4.008,0,0,0,3.874,2.939h7.214a20.177,20.177,0,0,1-16.833,9.218h-.134a4.019,4.019,0,0,0-4.008,4.008,3.936,3.936,0,0,0,4.008,4.008h.134a28.129,28.129,0,0,0,25.917-17.234h10.42a3.77,3.77,0,0,0,2-.534l46.357-26.719a4.057,4.057,0,0,0,1.737-4.542ZM141.075,117.7,112.352,68.133l17.5-.134,28.723,49.83h-17.5Z" fill="#34495e"/></svg>