<svg xmlns="http://www.w3.org/2000/svg" xmlns:xlink="http://www.w3.org/1999/xlink" width="496.56" height="420.511" viewBox="0 0 496.56 420.511"><defs><filter id="a" x="0" y="0" width="389.417" height="395.274" filterUnits="userSpaceOnUse"><feOffset dy="3" input="SourceAlpha"/><feGaussianBlur stdDeviation="7.5" result="b"/><feFlood flood-opacity="0.161"/><feComposite operator="in" in2="b"/><feComposite in="SourceGraphic"/></filter><filter id="c" x="146.857" y="60.764" width="349.702" height="359.747" filterUnits="userSpaceOnUse"><feOffset dy="3" input="SourceAlpha"/><feGaussianBlur stdDeviation="7.5" result="d"/><feFlood flood-opacity="0.161"/><feComposite operator="in" in2="d"/><feComposite in="SourceGraphic"/></filter><filter id="e" x="84.221" y="2.446" width="330.974" height="342.382" filterUnits="userSpaceOnUse"><feOffset dy="3" input="SourceAlpha"/><feGaussianBlur stdDeviation="7.5" result="f"/><feFlood flood-opacity="0.161"/><feComposite operator="in" in2="f"/><feComposite in="SourceGraphic"/></filter></defs><g transform="translate(-332.532 -130.657)"><g transform="matrix(1, 0, 0, 1, 332.53, 130.66)" filter="url(#a)"><path d="M-2138.095-797.764h-231.548a10.011,10.011,0,0,1-10-10v-44.331a13.858,13.858,0,0,0,13.508-13.785,13.859,13.859,0,0,0-13.508-13.785v-173.051a10.011,10.011,0,0,1,10-10h231.548a10.011,10.011,0,0,1,10,10v173.051c-.085,0-.174,0-.282,0a13.8,13.8,0,0,0-13.79,13.788,13.8,13.8,0,0,0,13.79,13.788l.282,0v44.331A10.011,10.011,0,0,1-2138.095-797.764Z" transform="matrix(0.89, -0.45, 0.45, 0.89, 2625.24, 0.25)" fill="#e4e7f1"/></g><g transform="matrix(1, 0, 0, 1, 332.53, 130.66)" filter="url(#c)"><path d="M-2138.095-797.764h-231.548a10.011,10.011,0,0,1-10-10v-44.331a13.858,13.858,0,0,0,13.508-13.785,13.859,13.859,0,0,0-13.508-13.785v-173.051a10.011,10.011,0,0,1,10-10h231.548a10.011,10.011,0,0,1,10,10v173.051c-.085,0-.174,0-.282,0a13.8,13.8,0,0,0-13.79,13.788,13.8,13.8,0,0,0,13.79,13.788l.282,0v44.331A10.011,10.011,0,0,1-2138.095-797.764Z" transform="translate(2308.55 1651.05) rotate(13)" fill="#e4e7f1"/></g><g transform="translate(-513.061 111.59) rotate(-8)"><g transform="matrix(0.99, 0.14, -0.14, 0.99, 834.71, 136.57)" filter="url(#e)"><path d="M-2138.095-797.764h-231.548a10.011,10.011,0,0,1-10-10v-44.331a13.858,13.858,0,0,0,13.508-13.785,13.859,13.859,0,0,0-13.508-13.785v-173.051a10.011,10.011,0,0,1,10-10h231.548a10.011,10.011,0,0,1,10,10v173.051c-.085,0-.174,0-.282,0a13.8,13.8,0,0,0-13.79,13.788,13.8,13.8,0,0,0,13.79,13.788l.282,0v44.331A10.011,10.011,0,0,1-2138.095-797.764Z" transform="translate(2611.11 778.15) rotate(-8)" fill="#e4e7f1"/></g><rect width="103" height="103" rx="10" transform="translate(958 230.356)" fill="#a7b6c7"/><rect width="82" height="26" rx="5" transform="translate(958 424.356)" fill="#a7b6c7"/><rect width="196" height="6" rx="3" transform="translate(958 343.018)" fill="#a7b6c7"/><rect width="83" height="6" rx="3" transform="translate(958 359.83)" fill="#a7b6c7"/><rect width="4" height="4" rx="2" transform="translate(958 376.515)" fill="#a7b6c7"/><rect width="35.292" height="4" rx="1" transform="translate(968 376.515)" fill="#a7b6c7"/><rect width="35.292" height="4" rx="1" transform="translate(968 410.515)" fill="#a7b6c7"/><rect width="4" height="4" rx="2" transform="translate(958 410.515)" fill="#a7b6c7"/><path d="M8932,402.515v30" transform="translate(-7972 -22)" fill="#a7b6c7" stroke="#d8d8d8" stroke-width="0.4"/></g></g></svg>