<svg xmlns="http://www.w3.org/2000/svg" xmlns:xlink="http://www.w3.org/1999/xlink" width="222.001" height="179.542" viewBox="0 0 222.001 179.542"><defs><filter id="a" x="0" y="0" width="176" height="152.543" filterUnits="userSpaceOnUse"><feOffset dy="3" input="SourceAlpha"/><feGaussianBlur stdDeviation="3" result="b"/><feFlood flood-opacity="0.161"/><feComposite operator="in" in2="b"/><feComposite in="SourceGraphic"/></filter><filter id="c" x="46.001" y="27" width="176" height="152.542" filterUnits="userSpaceOnUse"><feOffset dy="3" input="SourceAlpha"/><feGaussianBlur stdDeviation="3" result="d"/><feFlood flood-opacity="0.161"/><feComposite operator="in" in2="d"/><feComposite in="SourceGraphic"/></filter></defs><g transform="translate(-345.999 -520)"><g transform="matrix(1, 0, 0, 1, 346, 520)" filter="url(#a)"><path d="M-7970.623,103.206h22.413l-22.413,31.337ZM-7971,103V5a5,5,0,0,1,5-5h148a5,5,0,0,1,5,5V98a5,5,0,0,1-5,5Z" transform="translate(7980 6)" fill="#e4e7f1"/></g><g transform="translate(-127 -108)"><g transform="matrix(1, 0, 0, 1, 473, 628)" filter="url(#c)"><path d="M5,134.542a5,5,0,0,1-5-5v-98H153a5,5,0,0,1,5,5v93a5,5,0,0,1-5,5ZM.4,31.335V0L24.355,31.335Z" transform="translate(213 167.54) rotate(180)" fill="#e4e7f1"/></g><g transform="translate(6.113)"><rect width="132.065" height="6" rx="3" transform="translate(666.952 689.36) rotate(180)" fill="#a7b6c7"/><rect width="132.065" height="6" rx="3" transform="translate(666.952 707.36) rotate(180)" fill="#a7b6c7"/><rect width="83" height="6" rx="3" transform="translate(667.091 726.162) rotate(180)" fill="#a7b6c7"/></g></g></g></svg>